<svg xmlns="http://www.w3.org/2000/svg" viewBox="0 0 1080 1920" width="1080" height="1920">
 <defs>
  <linearGradient id="sky" x1="0" y1="0" x2="0" y2="1">
   <stop offset="0" stop-color="#0f1450"/>
   <stop offset="0.35" stop-color="#4a2f6e"/>
   <stop offset="0.55" stop-color="#c0607a"/>
   <stop offset="0.68" stop-color="#ff9a6a"/>
   <stop offset="1" stop-color="#ffc98a"/>
  </linearGradient>
  <radialGradient id="glow" cx="0.5" cy="0.5" r="0.5">
   <stop offset="0" stop-color="#ffe7a0" stop-opacity="0.75"/>
   <stop offset="1" stop-color="#ff9a6a" stop-opacity="0"/>
  </radialGradient>
  <radialGradient id="sun" cx="0.5" cy="0.45" r="0.55">
   <stop offset="0" stop-color="#fff4c2"/>
   <stop offset="0.6" stop-color="#ffd27a"/>
   <stop offset="1" stop-color="#ff9658"/>
  </radialGradient>
  <linearGradient id="m1" x1="0" y1="0" x2="0" y2="1"><stop offset="0" stop-color="#8a4f86"/><stop offset="1" stop-color="#5c3474"/></linearGradient>
  <linearGradient id="m2" x1="0" y1="0" x2="0" y2="1"><stop offset="0" stop-color="#55306e"/><stop offset="1" stop-color="#36204f"/></linearGradient>
  <linearGradient id="m3" x1="0" y1="0" x2="0" y2="1"><stop offset="0" stop-color="#2c1a44"/><stop offset="1" stop-color="#150d24"/></linearGradient>
 </defs>
 <rect width="1080" height="1920" fill="url(#sky)"/>
 <circle cx="488.6" cy="429.9" r="2.6" fill="#fff8e0" opacity="0.50"/><circle cx="488.0" cy="656.7" r="1.5" fill="#fff8e0" opacity="0.24"/><circle cx="199.4" cy="393.1" r="1.5" fill="#fff8e0" opacity="0.54"/><circle cx="101.7" cy="233.0" r="1.2" fill="#fff8e0" opacity="0.73"/><circle cx="581.8" cy="683.8" r="1.2" fill="#fff8e0" opacity="0.21"/><circle cx="643.1" cy="304.3" r="2.6" fill="#fff8e0" opacity="0.65"/><circle cx="706.2" cy="472.8" r="1.5" fill="#fff8e0" opacity="0.45"/><circle cx="673.0" cy="638.7" r="1.2" fill="#fff8e0" opacity="0.26"/><circle cx="64.3" cy="146.1" r="1.5" fill="#fff8e0" opacity="0.83"/><circle cx="647.6" cy="597.6" r="2" fill="#fff8e0" opacity="0.31"/><circle cx="475.8" cy="647.0" r="1.5" fill="#fff8e0" opacity="0.25"/><circle cx="691.5" cy="383.8" r="1.2" fill="#fff8e0" opacity="0.56"/><circle cx="493.9" cy="213.6" r="1.2" fill="#fff8e0" opacity="0.75"/><circle cx="764.4" cy="242.1" r="1.5" fill="#fff8e0" opacity="0.72"/><circle cx="553.9" cy="22.8" r="1.2" fill="#fff8e0" opacity="0.97"/><circle cx="432.4" cy="650.2" r="2.6" fill="#fff8e0" opacity="0.25"/><circle cx="72.2" cy="13.0" r="1.2" fill="#fff8e0" opacity="0.98"/><circle cx="230.6" cy="712.0" r="1.2" fill="#fff8e0" opacity="0.18"/><circle cx="507.6" cy="752.9" r="2.6" fill="#fff8e0" opacity="0.13"/><circle cx="453.4" cy="434.9" r="1.5" fill="#fff8e0" opacity="0.50"/><circle cx="840.8" cy="207.2" r="1.2" fill="#fff8e0" opacity="0.76"/><circle cx="336.1" cy="11.6" r="2.6" fill="#fff8e0" opacity="0.99"/><circle cx="818.7" cy="90.6" r="1.5" fill="#fff8e0" opacity="0.90"/><circle cx="763.6" cy="8.4" r="2.6" fill="#fff8e0" opacity="0.99"/><circle cx="860.8" cy="136.5" r="1.5" fill="#fff8e0" opacity="0.84"/><circle cx="483.2" cy="146.4" r="1.5" fill="#fff8e0" opacity="0.83"/><circle cx="452.8" cy="294.7" r="2.6" fill="#fff8e0" opacity="0.66"/><circle cx="454.4" cy="163.5" r="2" fill="#fff8e0" opacity="0.81"/><circle cx="933.5" cy="748.7" r="2" fill="#fff8e0" opacity="0.13"/><circle cx="1077.7" cy="15.1" r="1.5" fill="#fff8e0" opacity="0.98"/><circle cx="425.8" cy="656.2" r="1.2" fill="#fff8e0" opacity="0.24"/><circle cx="45.5" cy="112.4" r="2.6" fill="#fff8e0" opacity="0.87"/><circle cx="278.9" cy="593.4" r="2" fill="#fff8e0" opacity="0.31"/><circle cx="896.7" cy="296.6" r="1.2" fill="#fff8e0" opacity="0.66"/><circle cx="97.3" cy="447.5" r="1.5" fill="#fff8e0" opacity="0.48"/><circle cx="16.7" cy="283.1" r="2.6" fill="#fff8e0" opacity="0.67"/><circle cx="137.4" cy="451.0" r="1.5" fill="#fff8e0" opacity="0.48"/><circle cx="935.8" cy="140.4" r="1.5" fill="#fff8e0" opacity="0.84"/><circle cx="335.7" cy="175.4" r="1.5" fill="#fff8e0" opacity="0.80"/><circle cx="783.4" cy="121.7" r="1.5" fill="#fff8e0" opacity="0.86"/><circle cx="741.9" cy="298.1" r="2.6" fill="#fff8e0" opacity="0.65"/><circle cx="651.8" cy="323.7" r="1.2" fill="#fff8e0" opacity="0.63"/><circle cx="117.8" cy="393.5" r="2" fill="#fff8e0" opacity="0.54"/><circle cx="257.5" cy="541.1" r="2" fill="#fff8e0" opacity="0.37"/><circle cx="454.5" cy="694.9" r="2.6" fill="#fff8e0" opacity="0.20"/><circle cx="316.9" cy="134.7" r="1.2" fill="#fff8e0" opacity="0.84"/><circle cx="136.5" cy="368.1" r="1.2" fill="#fff8e0" opacity="0.57"/><circle cx="302.6" cy="704.5" r="1.5" fill="#fff8e0" opacity="0.18"/><circle cx="808.9" cy="53.1" r="2.6" fill="#fff8e0" opacity="0.94"/><circle cx="481.4" cy="46.4" r="1.5" fill="#fff8e0" opacity="0.95"/><circle cx="304.5" cy="407.8" r="1.5" fill="#fff8e0" opacity="0.53"/><circle cx="99.6" cy="106.3" r="2.6" fill="#fff8e0" opacity="0.88"/><circle cx="1058.9" cy="504.5" r="1.5" fill="#fff8e0" opacity="0.42"/><circle cx="637.1" cy="709.3" r="2.6" fill="#fff8e0" opacity="0.18"/><circle cx="983.0" cy="538.3" r="1.2" fill="#fff8e0" opacity="0.38"/><circle cx="23.0" cy="488.6" r="2.6" fill="#fff8e0" opacity="0.43"/><circle cx="72.7" cy="238.9" r="1.5" fill="#fff8e0" opacity="0.72"/><circle cx="1079.3" cy="57.8" r="2" fill="#fff8e0" opacity="0.93"/><circle cx="796.0" cy="691.4" r="1.5" fill="#fff8e0" opacity="0.20"/><circle cx="856.7" cy="702.7" r="2" fill="#fff8e0" opacity="0.19"/><circle cx="91.7" cy="363.5" r="1.2" fill="#fff8e0" opacity="0.58"/><circle cx="940.8" cy="320.4" r="1.2" fill="#fff8e0" opacity="0.63"/><circle cx="932.6" cy="439.9" r="2.6" fill="#fff8e0" opacity="0.49"/><circle cx="409.5" cy="9.6" r="1.2" fill="#fff8e0" opacity="0.99"/><circle cx="86.6" cy="491.1" r="2" fill="#fff8e0" opacity="0.43"/><circle cx="950.2" cy="559.3" r="2.6" fill="#fff8e0" opacity="0.35"/><circle cx="1009.0" cy="533.1" r="2.6" fill="#fff8e0" opacity="0.38"/><circle cx="475.8" cy="643.9" r="1.2" fill="#fff8e0" opacity="0.25"/><circle cx="560.2" cy="395.2" r="2" fill="#fff8e0" opacity="0.54"/><circle cx="649.4" cy="369.4" r="1.5" fill="#fff8e0" opacity="0.57"/><circle cx="1034.0" cy="86.7" r="2.6" fill="#fff8e0" opacity="0.90"/><circle cx="276.3" cy="8.7" r="2" fill="#fff8e0" opacity="0.99"/><circle cx="154.7" cy="469.8" r="1.5" fill="#fff8e0" opacity="0.46"/><circle cx="814.1" cy="263.1" r="2.6" fill="#fff8e0" opacity="0.70"/><circle cx="538.2" cy="185.5" r="2.6" fill="#fff8e0" opacity="0.79"/><circle cx="719.2" cy="152.5" r="2.6" fill="#fff8e0" opacity="0.82"/><circle cx="868.0" cy="579.6" r="1.5" fill="#fff8e0" opacity="0.33"/><circle cx="950.7" cy="295.2" r="2" fill="#fff8e0" opacity="0.66"/><circle cx="226.7" cy="103.3" r="2" fill="#fff8e0" opacity="0.88"/><circle cx="904.1" cy="651.8" r="1.2" fill="#fff8e0" opacity="0.25"/><circle cx="1026.0" cy="212.6" r="1.5" fill="#fff8e0" opacity="0.75"/><circle cx="121.9" cy="362.0" r="1.5" fill="#fff8e0" opacity="0.58"/><circle cx="897.4" cy="293.8" r="2.6" fill="#fff8e0" opacity="0.66"/><circle cx="725.9" cy="550.1" r="2.6" fill="#fff8e0" opacity="0.36"/><circle cx="346.0" cy="636.5" r="2" fill="#fff8e0" opacity="0.26"/><circle cx="942.7" cy="31.9" r="2" fill="#fff8e0" opacity="0.96"/><circle cx="616.2" cy="237.3" r="1.2" fill="#fff8e0" opacity="0.73"/><circle cx="692.3" cy="311.2" r="1.5" fill="#fff8e0" opacity="0.64"/><circle cx="26.7" cy="637.2" r="1.5" fill="#fff8e0" opacity="0.26"/><circle cx="841.6" cy="612.0" r="1.2" fill="#fff8e0" opacity="0.29"/><circle cx="482.2" cy="483.8" r="2" fill="#fff8e0" opacity="0.44"/><circle cx="1035.1" cy="525.7" r="1.5" fill="#fff8e0" opacity="0.39"/><circle cx="889.7" cy="196.6" r="1.2" fill="#fff8e0" opacity="0.77"/><circle cx="815.5" cy="410.8" r="1.2" fill="#fff8e0" opacity="0.52"/><circle cx="193.4" cy="209.2" r="2" fill="#fff8e0" opacity="0.76"/><circle cx="582.9" cy="727.2" r="1.5" fill="#fff8e0" opacity="0.16"/><circle cx="425.0" cy="608.2" r="1.5" fill="#fff8e0" opacity="0.30"/><circle cx="94.2" cy="716.2" r="2.6" fill="#fff8e0" opacity="0.17"/><circle cx="140.3" cy="348.3" r="1.2" fill="#fff8e0" opacity="0.60"/><circle cx="406.9" cy="436.8" r="2" fill="#fff8e0" opacity="0.49"/><circle cx="500.8" cy="500.2" r="1.5" fill="#fff8e0" opacity="0.42"/><circle cx="106.9" cy="665.2" r="1.2" fill="#fff8e0" opacity="0.23"/><circle cx="230.4" cy="691.2" r="1.2" fill="#fff8e0" opacity="0.20"/><circle cx="1055.5" cy="412.4" r="2" fill="#fff8e0" opacity="0.52"/><circle cx="282.8" cy="551.6" r="1.2" fill="#fff8e0" opacity="0.36"/><circle cx="376.4" cy="63.6" r="2.6" fill="#fff8e0" opacity="0.93"/><circle cx="369.4" cy="323.6" r="2" fill="#fff8e0" opacity="0.63"/><circle cx="526.4" cy="21.8" r="1.2" fill="#fff8e0" opacity="0.97"/><circle cx="463.2" cy="27.0" r="2" fill="#fff8e0" opacity="0.97"/><circle cx="741.5" cy="703.5" r="2.6" fill="#fff8e0" opacity="0.19"/><circle cx="160.6" cy="396.7" r="2.6" fill="#fff8e0" opacity="0.54"/><circle cx="1021.4" cy="378.3" r="1.2" fill="#fff8e0" opacity="0.56"/><circle cx="818.5" cy="337.5" r="2" fill="#fff8e0" opacity="0.61"/><circle cx="897.7" cy="431.3" r="1.5" fill="#fff8e0" opacity="0.50"/><circle cx="564.6" cy="647.9" r="2" fill="#fff8e0" opacity="0.25"/><circle cx="336.6" cy="292.8" r="1.5" fill="#fff8e0" opacity="0.66"/><circle cx="328.8" cy="108.4" r="2" fill="#fff8e0" opacity="0.87"/><circle cx="618.8" cy="154.3" r="1.2" fill="#fff8e0" opacity="0.82"/><circle cx="543.4" cy="464.8" r="1.2" fill="#fff8e0" opacity="0.46"/><circle cx="581.4" cy="33.8" r="2.6" fill="#fff8e0" opacity="0.96"/><circle cx="587.5" cy="759.9" r="1.2" fill="#fff8e0" opacity="0.12"/><circle cx="530.3" cy="530.7" r="1.2" fill="#fff8e0" opacity="0.39"/><circle cx="1005.3" cy="352.5" r="2.6" fill="#fff8e0" opacity="0.59"/><circle cx="290.8" cy="363.4" r="1.5" fill="#fff8e0" opacity="0.58"/><circle cx="366.9" cy="691.9" r="2.6" fill="#fff8e0" opacity="0.20"/><circle cx="567.0" cy="83.4" r="2.6" fill="#fff8e0" opacity="0.90"/><circle cx="667.3" cy="710.6" r="1.5" fill="#fff8e0" opacity="0.18"/><circle cx="758.3" cy="750.6" r="1.2" fill="#fff8e0" opacity="0.13"/><circle cx="209.6" cy="174.5" r="2" fill="#fff8e0" opacity="0.80"/><circle cx="347.8" cy="272.9" r="2.6" fill="#fff8e0" opacity="0.68"/><circle cx="113.3" cy="561.3" r="1.2" fill="#fff8e0" opacity="0.35"/><circle cx="920.1" cy="478.9" r="1.5" fill="#fff8e0" opacity="0.45"/><circle cx="757.5" cy="674.9" r="1.2" fill="#fff8e0" opacity="0.22"/><circle cx="405.8" cy="317.5" r="1.5" fill="#fff8e0" opacity="0.63"/><circle cx="581.2" cy="663.4" r="1.5" fill="#fff8e0" opacity="0.23"/><circle cx="572.0" cy="653.8" r="1.5" fill="#fff8e0" opacity="0.24"/><circle cx="251.3" cy="568.9" r="2" fill="#fff8e0" opacity="0.34"/><circle cx="974.9" cy="242.6" r="2" fill="#fff8e0" opacity="0.72"/><circle cx="961.9" cy="149.5" r="1.5" fill="#fff8e0" opacity="0.83"/><circle cx="958.5" cy="102.9" r="1.5" fill="#fff8e0" opacity="0.88"/>
 <circle cx="540" cy="1150" r="520" fill="url(#glow)"/>
 <circle cx="540" cy="1150" r="250" fill="url(#sun)"/>
 <path d="M274,820 Q287.0,804.4 300,820 Q313.0,804.4 326,820" fill="none" stroke="#2a1838" stroke-width="3.7" stroke-linecap="round"/>
  <path d="M340,790 Q350.0,778.0 360,790 Q370.0,778.0 380,790" fill="none" stroke="#2a1838" stroke-width="2.9" stroke-linecap="round"/>
  <path d="M394,835 Q402.0,825.4 410,835 Q418.0,825.4 426,835" fill="none" stroke="#2a1838" stroke-width="2.3" stroke-linecap="round"/>
  <path d="M742,760 Q751.0,749.2 760,760 Q769.0,749.2 778,760" fill="none" stroke="#2a1838" stroke-width="2.6" stroke-linecap="round"/>
  <path d="M0,1920 L0.0,1009.2 C22.5,996.4 90.0,938.7 135.0,932.1 C180.0,925.5 225.0,945.0 270.0,969.5 C315.0,994.0 360.0,1068.5 405.0,1079.2 C450.0,1090.0 495.0,1050.6 540.0,1033.9 C585.0,1017.2 630.0,993.4 675.0,979.2 C720.0,965.0 765.0,949.8 810.0,948.9 C855.0,948.0 900.0,948.4 945.0,973.8 C990.0,999.2 1057.5,1080.0 1080.0,1101.3 L1080,1920 Z" fill="url(#m1)"/>
  <path d="M0,1920 L0.0,1283.9 C25.7,1273.3 102.9,1235.8 154.3,1219.9 C205.7,1204.0 257.1,1194.7 308.6,1188.5 C360.0,1182.2 411.4,1174.0 462.9,1182.2 C514.3,1190.4 565.7,1222.9 617.1,1237.6 C668.6,1252.3 720.0,1273.4 771.4,1270.4 C822.9,1267.3 874.3,1238.0 925.7,1219.3 C977.1,1200.7 1054.3,1168.8 1080.0,1158.6 L1080,1920 Z" fill="url(#m2)"/>
  <path d="M0,1920 L0.0,1392.6 C20.0,1395.6 80.0,1401.3 120.0,1410.4 C160.0,1419.5 200.0,1445.9 240.0,1447.3 C280.0,1448.6 320.0,1427.2 360.0,1418.6 C400.0,1410.1 440.0,1403.2 480.0,1395.8 C520.0,1388.5 560.0,1369.0 600.0,1374.8 C640.0,1380.7 680.0,1419.7 720.0,1430.9 C760.0,1442.2 800.0,1441.0 840.0,1442.5 C880.0,1443.9 920.0,1444.2 960.0,1439.5 C1000.0,1434.9 1060.0,1418.7 1080.0,1414.5 L1080,1920 Z" fill="url(#m3)"/>
 <text x="540" y="1735" text-anchor="middle" font-family="DejaVu Sans, Helvetica, Arial, sans-serif" font-weight="700" font-size="72" fill="#ffeedd">Hello from Claude</text>
 <text x="540" y="1805" text-anchor="middle" font-family="DejaVu Sans, Helvetica, Arial, sans-serif" font-size="38" fill="#ffeedd" opacity="0.8">drawn as vector art</text>
</svg>